<?xml version="1.0" standalone="no"?>
<!DOCTYPE svg PUBLIC "-//W3C//DTD SVG 20010904//EN"
 "http://www.w3.org/TR/2001/REC-SVG-20010904/DTD/svg10.dtd">
<svg version="1.0" xmlns="http://www.w3.org/2000/svg"
 width="700.000000pt" height="700.000000pt" viewBox="0 0 700.000000 700.000000"
 preserveAspectRatio="xMidYMid meet">
<metadata>
Created by potrace 1.14, written by Peter Selinger 2001-2017
</metadata>
<g transform="translate(0.000000,700.000000) scale(0.100000,-0.100000)"
fill="#000000" stroke="none">
<path d="M3278 6995 c-1 -1 -42 -5 -89 -9 -47 -4 -95 -8 -105 -10 -10 -2 -41
-7 -69 -10 -866 -115 -1681 -578 -2245 -1278 -372 -461 -636 -1053 -724 -1623
-2 -16 -8 -50 -12 -75 -7 -48 -8 -59 -21 -190 -15 -159 -8 -604 11 -707 2 -10
7 -43 10 -73 7 -62 12 -94 26 -165 6 -27 12 -59 14 -70 39 -201 129 -481 223
-695 73 -163 137 -283 266 -495 32 -51 192 -269 252 -340 119 -143 303 -325
461 -456 313 -260 694 -473 1086 -608 100 -34 306 -94 372 -107 67 -14 283
-52 296 -52 8 0 31 -3 50 -6 180 -28 653 -28 850 0 558 81 994 238 1440 517
106 67 324 228 415 307 87 76 238 224 309 304 119 136 133 152 178 211 257
340 445 701 567 1090 57 182 108 408 126 560 4 28 8 61 11 75 26 149 25 730
-1 830 -3 8 -7 38 -10 66 -3 28 -7 59 -9 70 -2 10 -11 60 -21 109 -199 1067
-920 2006 -1905 2482 -308 149 -669 263 -975 309 -27 4 -57 9 -65 10 -8 2 -40
6 -70 9 -30 4 -73 9 -95 12 -44 5 -541 13 -547 8z m507 -179 c171 -19 205 -24
309 -42 49 -8 157 -33 240 -54 988 -253 1818 -967 2230 -1919 20 -47 36 -89
36 -94 0 -5 7 -23 15 -40 59 -128 157 -512 181 -713 3 -27 7 -60 9 -74 20
-149 26 -454 12 -644 -5 -60 -10 -112 -11 -115 -2 -3 -7 -33 -10 -66 -15 -150
-71 -398 -137 -598 -22 -67 -44 -131 -49 -142 -5 -11 -30 -69 -56 -130 -44
-104 -141 -299 -187 -375 -67 -111 -226 -344 -247 -360 -3 -3 -13 -14 -21 -26
-64 -94 -333 -368 -479 -488 -332 -274 -731 -490 -1135 -614 -93 -28 -169 -50
-205 -57 -8 -2 -58 -13 -110 -24 -52 -11 -115 -23 -140 -26 -25 -3 -52 -8 -60
-10 -8 -2 -46 -7 -85 -10 -38 -4 -83 -9 -100 -11 -16 -3 -124 -6 -240 -8 -250
-3 -431 12 -690 58 -146 26 -396 100 -575 171 -1112 439 -1897 1431 -2074
2621 -40 269 -42 625 -5 909 175 1339 1156 2448 2464 2785 63 16 125 31 137
34 13 2 61 11 108 20 46 9 107 19 135 22 27 3 59 7 70 9 11 2 65 7 120 11 55
3 101 8 103 9 6 5 391 -3 447 -9z"/>
<path d="M2057 4854 c-1 -1 -30 -4 -63 -7 -363 -34 -712 -277 -887 -617 -67
-129 -124 -308 -144 -450 -10 -69 -10 -338 -1 -406 58 -421 297 -776 645 -956
l77 -40 8 29 c5 15 15 57 23 93 l15 65 -49 45 c-139 128 -224 294 -281 552
-29 128 -35 202 -35 423 0 221 6 282 45 450 27 114 64 218 106 294 35 64 123
180 161 211 137 115 253 160 428 166 67 2 133 -2 170 -10 82 -18 194 -66 253
-110 202 -148 334 -448 359 -816 16 -235 5 -439 -32 -605 -58 -254 -126 -396
-259 -533 -34 -35 -62 -67 -64 -72 -2 -5 5 -44 14 -87 10 -43 17 -81 16 -85
-2 -10 56 12 108 40 351 194 582 558 626 989 15 151 6 337 -22 463 -59 261
-171 469 -343 640 -173 173 -350 267 -587 315 -64 13 -277 27 -287 19z"/>
<path d="M3558 4791 c-5 -41 -4 -41 156 -76 66 -14 121 -27 124 -30 7 -6 6
-2155 -1 -2162 -5 -5 -197 -48 -248 -56 -28 -5 -38 -24 -30 -55 l7 -26 425 1
c233 1 433 2 445 2 16 1 20 8 21 35 1 34 1 34 -66 49 -101 24 -163 37 -191 41
l-25 3 0 418 c-1 321 2 421 12 430 6 7 43 48 80 92 115 133 112 131 127 110 7
-9 210 -279 451 -600 l438 -582 331 2 c182 1 337 2 344 2 13 1 18 70 5 72 -29
3 -75 11 -113 19 -25 5 -58 12 -75 14 -144 23 -158 26 -171 44 -7 10 -32 43
-56 73 -23 30 -185 239 -358 464 -425 552 -444 577 -521 676 l-67 86 85 99
c47 55 111 128 143 164 31 36 97 110 145 165 48 55 113 129 145 165 31 36 77
88 101 116 85 99 205 158 384 188 87 15 86 15 83 54 l-3 37 -414 -1 -414 0 -2
-37 c-3 -34 -1 -37 24 -38 31 -1 56 -4 136 -21 63 -12 105 -43 105 -76 0 -18
-36 -80 -63 -107 -7 -6 -40 -44 -75 -83 -35 -39 -73 -82 -85 -95 -12 -13 -33
-37 -47 -53 -39 -45 -205 -230 -284 -318 -39 -43 -75 -84 -81 -90 -5 -6 -44
-49 -85 -96 -41 -47 -93 -105 -116 -130 -22 -25 -56 -62 -75 -83 l-34 -38 0
565 -1 565 76 16 c227 50 207 42 208 80 1 27 -3 35 -16 36 -9 0 -211 2 -449 2
l-431 2 -4 -34z"/>
</g>
</svg>
