<?xml version="1.0" encoding="UTF-8"?><svg id="Ebene_2" xmlns="http://www.w3.org/2000/svg" viewBox="0 0 439 123.09"><defs><style>.cls-1{fill:none;}</style></defs><g id="Typogramm_Italienisch"><g><rect class="cls-1" width="439" height="123.09"/><g><g><path d="M154.57,36.36l1.71,.43c-.36,1.4-1,2.47-1.93,3.2-.93,.74-2.06,1.1-3.41,1.1s-2.52-.28-3.39-.85c-.87-.56-1.53-1.38-1.99-2.46-.45-1.07-.68-2.22-.68-3.45,0-1.34,.26-2.51,.77-3.51,.51-1,1.24-1.76,2.19-2.28,.95-.52,1.99-.78,3.12-.78,1.29,0,2.37,.33,3.25,.98s1.49,1.58,1.84,2.77l-1.68,.4c-.3-.94-.73-1.62-1.3-2.05s-1.28-.64-2.14-.64c-.99,0-1.82,.24-2.48,.71-.66,.47-1.13,1.11-1.4,1.91-.27,.8-.4,1.62-.4,2.47,0,1.1,.16,2.05,.48,2.87,.32,.82,.82,1.43,1.49,1.83s1.4,.61,2.19,.61c.96,0,1.76-.28,2.43-.83s1.11-1.37,1.34-2.45Z"/><path d="M159.28,34.61c0-2.14,.57-3.81,1.72-5.02,1.15-1.21,2.63-1.81,4.45-1.81,1.19,0,2.26,.28,3.22,.85s1.68,1.36,2.18,2.38c.5,1.02,.75,2.17,.75,3.46s-.26,2.48-.79,3.51-1.27,1.81-2.24,2.34c-.97,.53-2.01,.8-3.13,.8-1.21,0-2.3-.29-3.25-.88s-1.68-1.39-2.17-2.4-.74-2.09-.74-3.22Zm1.76,.03c0,1.55,.42,2.78,1.25,3.67,.83,.89,1.88,1.34,3.14,1.34s2.34-.45,3.17-1.35c.83-.9,1.24-2.18,1.24-3.84,0-1.05-.18-1.96-.53-2.75-.35-.78-.87-1.39-1.55-1.82-.68-.43-1.45-.65-2.3-.65-1.21,0-2.25,.42-3.12,1.24-.87,.83-1.31,2.21-1.31,4.15Z"/><path d="M175.17,40.88v-12.88h2.57l3.05,9.12c.28,.85,.49,1.49,.62,1.91,.15-.47,.38-1.16,.69-2.07l3.09-8.96h2.29v12.88h-1.64v-10.78l-3.74,10.78h-1.54l-3.73-10.97v10.97h-1.64Z"/><path d="M191.58,40.88v-12.88h2.57l3.05,9.12c.28,.85,.49,1.49,.62,1.91,.15-.47,.38-1.16,.69-2.07l3.09-8.96h2.29v12.88h-1.64v-10.78l-3.74,10.78h-1.54l-3.73-10.97v10.97h-1.64Z"/><path d="M208.09,40.88v-12.88h9.32v1.52h-7.61v3.95h7.13v1.51h-7.13v4.39h7.91v1.52h-9.62Z"/><path d="M221.46,40.88v-12.88h1.75l6.77,10.12v-10.12h1.63v12.88h-1.75l-6.77-10.12v10.12h-1.63Z"/><path d="M239.18,40.88v-11.36h-4.25v-1.52h10.21v1.52h-4.26v11.36h-1.71Z"/><path d="M245.57,40.88l4.95-12.88h1.84l5.27,12.88h-1.94l-1.5-3.9h-5.39l-1.42,3.9h-1.81Zm3.72-5.29h4.37l-1.34-3.57c-.41-1.08-.71-1.97-.91-2.67-.16,.83-.4,1.65-.69,2.46l-1.42,3.78Z"/><path d="M260.44,40.88v-12.88h5.71c1.15,0,2.02,.12,2.62,.35s1.08,.64,1.43,1.23,.54,1.23,.54,1.94c0,.91-.3,1.68-.89,2.31s-1.51,1.03-2.74,1.2c.45,.22,.79,.43,1.03,.64,.5,.46,.97,1.03,1.42,1.71l2.24,3.51h-2.14l-1.71-2.68c-.5-.77-.91-1.37-1.23-1.78s-.61-.7-.87-.86c-.25-.16-.51-.28-.78-.34-.19-.04-.51-.06-.95-.06h-1.98v5.72h-1.71Zm1.71-7.2h3.67c.78,0,1.39-.08,1.83-.24s.77-.42,1-.77,.34-.74,.34-1.16c0-.61-.22-1.11-.66-1.5-.44-.39-1.14-.59-2.1-.59h-4.08v4.26Z"/><path d="M275.12,40.88v-12.88h1.71v12.88h-1.71Z"/><path d="M280.74,34.61c0-2.14,.57-3.81,1.72-5.02,1.15-1.21,2.63-1.81,4.45-1.81,1.19,0,2.26,.28,3.22,.85s1.68,1.36,2.18,2.38,.75,2.17,.75,3.46-.26,2.48-.79,3.51-1.28,1.81-2.24,2.34c-.97,.53-2.01,.8-3.13,.8-1.21,0-2.3-.29-3.25-.88-.96-.59-1.68-1.39-2.17-2.4s-.74-2.09-.74-3.22Zm1.76,.03c0,1.55,.42,2.78,1.25,3.67,.83,.89,1.88,1.34,3.14,1.34s2.34-.45,3.17-1.35,1.24-2.18,1.24-3.84c0-1.05-.18-1.96-.53-2.75-.35-.78-.87-1.39-1.56-1.82-.68-.43-1.45-.65-2.3-.65-1.21,0-2.25,.42-3.12,1.24-.87,.83-1.3,2.21-1.3,4.15Z"/><path d="M302.58,34.61c0-2.14,.57-3.81,1.72-5.02,1.15-1.21,2.63-1.81,4.45-1.81,1.19,0,2.26,.28,3.22,.85s1.68,1.36,2.18,2.38,.75,2.17,.75,3.46-.26,2.48-.79,3.51-1.28,1.81-2.24,2.34c-.97,.53-2.01,.8-3.13,.8-1.21,0-2.3-.29-3.25-.88s-1.68-1.39-2.17-2.4-.74-2.09-.74-3.22Zm1.76,.03c0,1.55,.42,2.78,1.25,3.67,.83,.89,1.88,1.34,3.14,1.34s2.34-.45,3.17-1.35,1.24-2.18,1.24-3.84c0-1.05-.18-1.96-.53-2.75-.35-.78-.87-1.39-1.56-1.82-.68-.43-1.45-.65-2.3-.65-1.21,0-2.25,.42-3.12,1.24-.87,.83-1.3,2.21-1.3,4.15Z"/><path d="M318.5,40.88v-12.88h1.75l6.77,10.12v-10.12h1.63v12.88h-1.75l-6.77-10.12v10.12h-1.63Z"/><path d="M332.87,40.88v-12.88h1.71v11.36h6.35v1.52h-8.05Z"/><path d="M344.67,40.88v-12.88h1.71v12.88h-1.71Z"/><path d="M350.78,40.88v-12.88h1.75l6.77,10.12v-10.12h1.63v12.88h-1.75l-6.77-10.12v10.12h-1.63Z"/><path d="M365.25,40.88v-12.88h9.32v1.52h-7.61v3.95h7.13v1.51h-7.13v4.39h7.91v1.52h-9.62Z"/><path d="M145.66,62.88v-12.88h1.71v12.88h-1.71Z"/><path d="M151.73,62.88v-12.88h1.71v11.36h6.35v1.52h-8.05Z"/><path d="M178.18,58.36l1.71,.43c-.36,1.4-1,2.47-1.93,3.2s-2.06,1.1-3.41,1.1-2.52-.28-3.39-.85c-.87-.56-1.53-1.38-1.99-2.46s-.68-2.22-.68-3.45c0-1.34,.26-2.51,.77-3.51,.51-1,1.24-1.76,2.19-2.28,.95-.52,1.99-.78,3.12-.78,1.29,0,2.37,.33,3.25,.98s1.49,1.58,1.84,2.77l-1.68,.4c-.3-.94-.73-1.62-1.3-2.05s-1.28-.64-2.14-.64c-.99,0-1.82,.24-2.48,.71s-1.13,1.11-1.4,1.91c-.27,.8-.4,1.62-.4,2.47,0,1.1,.16,2.05,.48,2.87,.32,.82,.82,1.43,1.49,1.83,.67,.4,1.4,.61,2.19,.61,.96,0,1.76-.28,2.43-.83s1.11-1.37,1.34-2.45Z"/><path d="M182.89,56.61c0-2.14,.57-3.81,1.72-5.02,1.15-1.21,2.63-1.81,4.45-1.81,1.19,0,2.26,.28,3.22,.85s1.68,1.36,2.18,2.38,.75,2.17,.75,3.46-.26,2.48-.79,3.51-1.27,1.81-2.24,2.34c-.97,.53-2.01,.8-3.13,.8-1.21,0-2.3-.29-3.25-.88s-1.68-1.39-2.17-2.4-.74-2.09-.74-3.22Zm1.76,.03c0,1.55,.42,2.78,1.25,3.67,.83,.89,1.88,1.34,3.14,1.34s2.34-.45,3.17-1.35,1.24-2.18,1.24-3.84c0-1.05-.18-1.96-.53-2.75-.35-.78-.87-1.39-1.56-1.82-.68-.43-1.45-.65-2.3-.65-1.21,0-2.25,.42-3.12,1.24-.87,.83-1.31,2.21-1.31,4.15Z"/><path d="M198.78,62.88v-12.88h2.57l3.05,9.12c.28,.85,.49,1.49,.62,1.91,.15-.47,.38-1.16,.69-2.07l3.08-8.96h2.29v12.88h-1.64v-10.78l-3.74,10.78h-1.54l-3.73-10.97v10.97h-1.64Z"/><path d="M215.19,62.88v-12.88h2.57l3.05,9.12c.28,.85,.49,1.49,.62,1.91,.15-.47,.38-1.16,.69-2.07l3.08-8.96h2.29v12.88h-1.64v-10.78l-3.74,10.78h-1.54l-3.73-10.97v10.97h-1.64Z"/><path d="M231.7,62.88v-12.88h9.32v1.52h-7.61v3.95h7.13v1.51h-7.13v4.39h7.91v1.52h-9.62Z"/><path d="M245.07,62.88v-12.88h1.75l6.77,10.12v-10.12h1.63v12.88h-1.75l-6.77-10.12v10.12h-1.63Z"/><path d="M262.79,62.88v-11.36h-4.25v-1.52h10.21v1.52h-4.26v11.36h-1.71Z"/><path d="M269.18,62.88l4.95-12.88h1.84l5.27,12.88h-1.94l-1.5-3.9h-5.39l-1.42,3.9h-1.81Zm3.72-5.29h4.37l-1.34-3.57c-.41-1.08-.71-1.97-.91-2.67-.16,.83-.4,1.65-.7,2.46l-1.41,3.78Z"/><path d="M284.05,62.88v-12.88h5.71c1.15,0,2.02,.12,2.62,.35s1.08,.64,1.43,1.23,.54,1.23,.54,1.94c0,.91-.29,1.68-.89,2.31s-1.51,1.03-2.74,1.2c.45,.22,.79,.43,1.03,.64,.5,.46,.97,1.03,1.42,1.71l2.24,3.51h-2.14l-1.71-2.68c-.5-.77-.91-1.37-1.23-1.78-.32-.41-.61-.7-.87-.86s-.51-.28-.78-.34c-.19-.04-.51-.06-.95-.06h-1.98v5.72h-1.71Zm1.71-7.2h3.67c.78,0,1.39-.08,1.83-.24s.77-.42,1-.77c.23-.35,.34-.74,.34-1.16,0-.61-.22-1.11-.66-1.5s-1.14-.59-2.1-.59h-4.08v4.26Z"/><path d="M298.73,62.88v-12.88h1.71v12.88h-1.71Z"/><path d="M304.34,56.61c0-2.14,.57-3.81,1.72-5.02,1.15-1.21,2.63-1.81,4.45-1.81,1.19,0,2.26,.28,3.22,.85s1.68,1.36,2.18,2.38,.75,2.17,.75,3.46-.26,2.48-.79,3.51-1.27,1.81-2.24,2.34c-.97,.53-2.01,.8-3.13,.8-1.21,0-2.3-.29-3.25-.88s-1.68-1.39-2.17-2.4-.74-2.09-.74-3.22Zm1.76,.03c0,1.55,.42,2.78,1.25,3.67,.83,.89,1.88,1.34,3.14,1.34s2.34-.45,3.17-1.35,1.24-2.18,1.24-3.84c0-1.05-.18-1.96-.53-2.75-.35-.78-.87-1.39-1.56-1.82-.68-.43-1.45-.65-2.3-.65-1.21,0-2.25,.42-3.12,1.24-.87,.83-1.31,2.21-1.31,4.15Z"/><path d="M332.74,57.83v-1.51h5.46v4.77c-.84,.67-1.7,1.17-2.59,1.51-.89,.34-1.8,.5-2.74,.5-1.27,0-2.42-.27-3.45-.81-1.04-.54-1.82-1.33-2.34-2.35s-.79-2.17-.79-3.44,.26-2.42,.79-3.51c.53-1.09,1.28-1.89,2.26-2.42s2.12-.79,3.4-.79c.93,0,1.77,.15,2.53,.45,.75,.3,1.34,.72,1.77,1.26s.75,1.24,.98,2.11l-1.54,.42c-.19-.66-.43-1.17-.72-1.55s-.7-.67-1.23-.9-1.12-.34-1.78-.34c-.78,0-1.45,.12-2.02,.36-.57,.24-1.03,.55-1.38,.94-.35,.39-.62,.81-.81,1.27-.33,.8-.49,1.66-.49,2.59,0,1.15,.2,2.11,.59,2.88,.4,.77,.97,1.35,1.73,1.72s1.56,.56,2.41,.56c.74,0,1.46-.14,2.16-.43s1.24-.59,1.6-.91v-2.4h-3.79Z"/><path d="M342.42,62.88v-12.88h1.71v12.88h-1.71Z"/><path d="M357.01,50h1.71v7.44c0,1.29-.15,2.32-.44,3.08s-.82,1.38-1.59,1.86c-.77,.48-1.77,.72-3.01,.72s-2.19-.21-2.96-.62-1.32-1.02-1.64-1.81c-.33-.79-.49-1.86-.49-3.23v-7.44h1.71v7.44c0,1.12,.1,1.94,.31,2.47,.21,.53,.57,.94,1.07,1.23,.51,.29,1.13,.43,1.86,.43,1.25,0,2.15-.28,2.68-.85s.8-1.66,.8-3.28v-7.44Z"/><path d="M363,62.88v-12.88h5.71c1.15,0,2.02,.12,2.62,.35s1.08,.64,1.43,1.23c.36,.59,.54,1.23,.54,1.94,0,.91-.29,1.68-.89,2.31s-1.51,1.03-2.74,1.2c.45,.22,.79,.43,1.03,.64,.5,.46,.97,1.03,1.42,1.71l2.24,3.51h-2.14l-1.71-2.68c-.5-.77-.91-1.37-1.23-1.78s-.61-.7-.87-.86-.51-.28-.78-.34c-.19-.04-.51-.06-.95-.06h-1.98v5.72h-1.71Zm1.71-7.2h3.67c.78,0,1.39-.08,1.83-.24s.77-.42,1-.77,.34-.74,.34-1.16c0-.61-.22-1.11-.66-1.5s-1.14-.59-2.1-.59h-4.08v4.26Z"/><path d="M377.69,62.88v-12.88h1.71v12.88h-1.71Z"/><path d="M383.82,62.88v-12.88h4.44c1,0,1.77,.06,2.29,.18,.74,.17,1.37,.48,1.89,.92,.68,.57,1.19,1.31,1.53,2.2,.34,.89,.51,1.92,.51,3.06,0,.98-.12,1.85-.34,2.6s-.52,1.38-.88,1.88c-.36,.5-.75,.89-1.17,1.17s-.94,.5-1.54,.65-1.29,.22-2.07,.22h-4.65Zm1.71-1.52h2.75c.85,0,1.52-.08,2-.24s.87-.38,1.16-.67c.4-.4,.72-.95,.94-1.63,.23-.68,.34-1.51,.34-2.48,0-1.35-.22-2.38-.66-3.11-.44-.72-.98-1.21-1.61-1.45-.46-.18-1.19-.26-2.21-.26h-2.71v9.84Z"/><path d="M398.53,62.88v-12.88h1.71v12.88h-1.71Z"/><path d="M413.86,58.36l1.71,.43c-.36,1.4-1,2.47-1.93,3.2-.93,.74-2.06,1.1-3.41,1.1s-2.52-.28-3.39-.85c-.87-.56-1.53-1.38-1.99-2.46-.46-1.07-.68-2.22-.68-3.45,0-1.34,.26-2.51,.77-3.51,.51-1,1.24-1.76,2.19-2.28,.95-.52,1.99-.78,3.12-.78,1.29,0,2.37,.33,3.25,.98s1.49,1.58,1.84,2.77l-1.68,.4c-.3-.94-.73-1.62-1.3-2.05s-1.28-.64-2.14-.64c-.99,0-1.82,.24-2.48,.71-.67,.47-1.13,1.11-1.4,1.91-.27,.8-.4,1.62-.4,2.47,0,1.1,.16,2.05,.48,2.87,.32,.82,.82,1.43,1.49,1.83s1.4,.61,2.19,.61c.96,0,1.76-.28,2.43-.83s1.11-1.37,1.34-2.45Z"/><path d="M418.57,56.61c0-2.14,.57-3.81,1.72-5.02,1.15-1.21,2.63-1.81,4.45-1.81,1.19,0,2.26,.28,3.22,.85s1.68,1.36,2.18,2.38c.5,1.02,.75,2.17,.75,3.46s-.26,2.48-.79,3.51-1.27,1.81-2.24,2.34c-.97,.53-2.01,.8-3.13,.8-1.21,0-2.3-.29-3.25-.88s-1.68-1.39-2.17-2.4-.74-2.09-.74-3.22Zm1.76,.03c0,1.55,.42,2.78,1.25,3.67,.84,.89,1.88,1.34,3.14,1.34s2.34-.45,3.17-1.35c.83-.9,1.24-2.18,1.24-3.84,0-1.05-.18-1.96-.53-2.75-.36-.78-.87-1.39-1.56-1.82-.68-.43-1.45-.65-2.3-.65-1.21,0-2.25,.42-3.12,1.24-.87,.83-1.3,2.21-1.3,4.15Z"/><path d="M145.66,84.88v-12.88h1.71v12.88h-1.71Z"/><path d="M151.78,84.88v-12.88h1.75l6.77,10.12v-10.12h1.63v12.88h-1.75l-6.77-10.12v10.12h-1.63Z"/><path d="M172.12,78.61c0-2.14,.57-3.81,1.72-5.02,1.15-1.21,2.63-1.81,4.45-1.81,1.19,0,2.26,.28,3.22,.85s1.68,1.36,2.18,2.38,.75,2.17,.75,3.46-.26,2.48-.79,3.51-1.28,1.81-2.24,2.34c-.97,.53-2.01,.8-3.13,.8-1.21,0-2.3-.29-3.25-.88s-1.68-1.39-2.17-2.4-.74-2.09-.74-3.22Zm1.76,.03c0,1.55,.42,2.78,1.25,3.67,.83,.89,1.88,1.34,3.14,1.34s2.34-.45,3.17-1.35,1.24-2.18,1.24-3.84c0-1.05-.18-1.96-.53-2.75-.35-.78-.87-1.39-1.56-1.82-.68-.43-1.45-.65-2.3-.65-1.21,0-2.25,.42-3.12,1.24-.87,.83-1.3,2.21-1.3,4.15Z"/><path d="M188.07,84.88v-12.88h4.86c.86,0,1.51,.04,1.96,.12,.63,.11,1.16,.31,1.59,.6,.43,.3,.77,.71,1.03,1.24s.39,1.12,.39,1.76c0,1.1-.35,2.02-1.04,2.78-.7,.76-1.96,1.14-3.78,1.14h-3.3v5.24h-1.71Zm1.71-6.76h3.33c1.1,0,1.88-.21,2.35-.62s.69-.99,.69-1.73c0-.54-.14-1-.41-1.38-.27-.38-.63-.64-1.08-.76-.29-.08-.82-.11-1.59-.11h-3.29v4.61Z"/><path d="M201.53,84.88v-12.88h9.32v1.52h-7.61v3.95h7.13v1.51h-7.13v4.39h7.91v1.52h-9.62Z"/><path d="M214.9,84.88v-12.88h1.75l6.77,10.12v-10.12h1.63v12.88h-1.75l-6.77-10.12v10.12h-1.63Z"/><path d="M233.36,84.88l4.95-12.88h1.84l5.27,12.88h-1.94l-1.5-3.9h-5.39l-1.42,3.9h-1.81Zm3.72-5.29h4.37l-1.34-3.57c-.41-1.08-.71-1.97-.91-2.67-.16,.83-.4,1.65-.69,2.46l-1.42,3.78Z"/><path d="M257.39,80.36l1.71,.43c-.36,1.4-1,2.47-1.93,3.2-.93,.74-2.06,1.1-3.41,1.1s-2.52-.28-3.39-.85c-.87-.56-1.53-1.38-1.99-2.46-.45-1.07-.68-2.22-.68-3.45,0-1.34,.26-2.51,.77-3.51,.51-1,1.24-1.76,2.19-2.28,.95-.52,1.99-.78,3.12-.78,1.29,0,2.37,.33,3.25,.98s1.49,1.58,1.84,2.77l-1.68,.4c-.3-.94-.73-1.62-1.3-2.05s-1.28-.64-2.14-.64c-.99,0-1.82,.24-2.48,.71-.66,.47-1.13,1.11-1.4,1.91-.27,.8-.4,1.62-.4,2.47,0,1.1,.16,2.05,.48,2.87,.32,.82,.82,1.43,1.49,1.83s1.4,.61,2.19,.61c.96,0,1.76-.28,2.43-.83s1.11-1.37,1.34-2.45Z"/><path d="M271.81,80.36l1.71,.43c-.36,1.4-1,2.47-1.93,3.2-.93,.74-2.06,1.1-3.41,1.1s-2.52-.28-3.39-.85c-.87-.56-1.53-1.38-1.99-2.46s-.68-2.22-.68-3.45c0-1.34,.26-2.51,.77-3.51,.51-1,1.24-1.76,2.19-2.28,.95-.52,1.99-.78,3.12-.78,1.29,0,2.37,.33,3.25,.98s1.49,1.58,1.84,2.77l-1.68,.4c-.3-.94-.73-1.62-1.3-2.05s-1.28-.64-2.14-.64c-.99,0-1.82,.24-2.48,.71s-1.13,1.11-1.4,1.91c-.27,.8-.4,1.62-.4,2.47,0,1.1,.16,2.05,.48,2.87,.32,.82,.82,1.43,1.49,1.83s1.4,.61,2.19,.61c.96,0,1.76-.28,2.43-.83s1.11-1.37,1.34-2.45Z"/><path d="M277.08,84.88v-12.88h9.32v1.52h-7.61v3.95h7.13v1.51h-7.13v4.39h7.91v1.52h-9.62Z"/><path d="M289.89,80.74l1.61-.14c.08,.64,.25,1.17,.53,1.59,.28,.41,.71,.75,1.3,1,.59,.25,1.25,.38,1.98,.38,.65,0,1.22-.1,1.72-.29s.87-.46,1.11-.79,.37-.71,.37-1.1-.12-.76-.35-1.06-.62-.56-1.16-.76c-.35-.13-1.11-.34-2.29-.63s-2.01-.55-2.49-.8c-.62-.32-1.07-.72-1.38-1.2s-.45-1.01-.45-1.6c0-.65,.18-1.26,.55-1.82s.91-1,1.62-1.29,1.5-.44,2.37-.44c.96,0,1.8,.15,2.53,.46,.73,.31,1.29,.76,1.68,1.36,.39,.6,.6,1.27,.63,2.03l-1.63,.12c-.09-.81-.38-1.43-.89-1.85s-1.25-.62-2.25-.62-1.78,.19-2.25,.57c-.47,.38-.71,.83-.71,1.37,0,.46,.17,.84,.5,1.14,.33,.3,1.18,.61,2.57,.92,1.39,.31,2.34,.59,2.85,.82,.75,.35,1.3,.78,1.66,1.31s.54,1.14,.54,1.83-.2,1.33-.59,1.94c-.39,.61-.96,1.08-1.69,1.42-.74,.34-1.56,.5-2.48,.5-1.17,0-2.14-.17-2.93-.51s-1.41-.85-1.85-1.53c-.45-.68-.68-1.45-.71-2.32Z"/><path d="M303.32,80.74l1.61-.14c.08,.64,.25,1.17,.53,1.59,.28,.41,.71,.75,1.3,1,.59,.25,1.25,.38,1.98,.38,.65,0,1.22-.1,1.72-.29s.87-.46,1.11-.79,.37-.71,.37-1.1-.12-.76-.35-1.06-.62-.56-1.16-.76c-.35-.13-1.11-.34-2.29-.63s-2.01-.55-2.49-.8c-.62-.32-1.07-.72-1.38-1.2s-.45-1.01-.45-1.6c0-.65,.18-1.26,.55-1.82s.91-1,1.62-1.29,1.5-.44,2.37-.44c.96,0,1.8,.15,2.53,.46,.73,.31,1.29,.76,1.68,1.36s.6,1.27,.63,2.03l-1.63,.12c-.09-.81-.38-1.43-.89-1.85s-1.25-.62-2.25-.62-1.78,.19-2.25,.57c-.47,.38-.71,.83-.71,1.37,0,.46,.17,.84,.5,1.14,.33,.3,1.18,.61,2.57,.92,1.39,.31,2.34,.59,2.85,.82,.75,.35,1.3,.78,1.66,1.31s.54,1.14,.54,1.83-.2,1.33-.59,1.94c-.39,.61-.96,1.08-1.69,1.42-.74,.34-1.56,.5-2.48,.5-1.17,0-2.14-.17-2.93-.51s-1.41-.85-1.85-1.53c-.45-.68-.68-1.45-.71-2.32Z"/></g><path d="M60.17,1.65C27.18,1.65,.44,28.39,.44,61.38s26.74,59.73,59.73,59.73c32.97-.04,59.7-26.76,59.73-59.73h0c0-32.99-26.74-59.74-59.73-59.73Zm56.8,59.74c0,31.37-25.44,56.8-56.81,56.79-31.37,0-56.8-25.44-56.79-56.8,0-31.37,25.44-56.8,56.8-56.79,31.35,.04,56.76,25.45,56.8,56.8h0Z"/><path id="Pfad_48" d="M66.01,78.11V41.07l-4.86-1.02v-1.25h15.34v1.25l-4.81,1.03v19.33l15.28-17.12c.48-.42,.78-.99,.86-1.62,0-.47-.36-.83-1.08-1.08-1.13-.32-2.29-.5-3.46-.54v-1.24h14.26v1.25c-1.75,.25-3.48,.66-5.16,1.24-1.06,.48-2,1.2-2.73,2.11l-10.69,12.2,17.33,22.52,5.99,1.03v1.24h-11.72l-15.39-20.47-3.51,4v14.2l4.81,1.03v1.24h-15.34v-1.25l4.86-1.02Z"/><path id="Pfad_49" d="M54.19,48.96c-1.65-3.22-4.14-5.94-7.22-7.85-3.07-1.9-6.62-2.89-10.23-2.85-3.61-.04-7.16,.95-10.23,2.85-3.07,1.91-5.57,4.63-7.22,7.85-1.78,3.44-2.68,7.27-2.63,11.15-.05,3.87,.85,7.7,2.63,11.15,1.65,3.23,4.14,5.94,7.22,7.85,.87,.54,1.78,1,2.73,1.39l.72-3.2c-.07-.05-.14-.1-.21-.15-2.12-1.76-3.69-4.08-4.53-6.69-1.12-3.35-1.65-6.87-1.58-10.4-.08-3.52,.46-7.03,1.58-10.37,.85-2.6,2.42-4.9,4.53-6.64,2.02-1.55,4.51-2.36,7.05-2.3,3.87-.12,7.52,1.82,9.6,5.09,2.3,3.39,3.46,8.09,3.46,14.1,.08,3.56-.46,7.1-1.58,10.48-.84,2.62-2.4,4.95-4.51,6.72-.08,.06-.16,.11-.23,.17l.72,3.18c.94-.39,1.85-.85,2.72-1.39,3.07-1.91,5.57-4.63,7.22-7.85,1.78-3.44,2.68-7.27,2.63-11.15,.05-3.87-.85-7.7-2.63-11.15"/></g></g></g></svg>