<svg xmlns="http://www.w3.org/2000/svg" width="123.035" height="57.559" viewBox="0 0 123.035 57.559">
  <path id="Pfad_35" data-name="Pfad 35" d="M16.437,59.457l4.317-7.478a20.864,20.864,0,1,1,20.848,0l4.317,7.478A28.92,28.92,0,0,0,61.856,33.925c0-16.078-13.735-29.115-30.677-29.115S.5,17.846.5,33.925A28.92,28.92,0,0,0,16.437,59.457Z" transform="translate(0.75 -3.56)" fill="none" stroke="#141215" stroke-miterlimit="10" stroke-width="2.5"/>
  <path id="Pfad_36" data-name="Pfad 36" d="M85.336,59.349h10.32L74.714,27.411,95.164,5.293H84.435L59.62,32.2V5.293H50.855V59.349H59.62V42.7l8.747-9.414Z" transform="translate(25.014 -3.328)" fill="none" stroke="#141215" stroke-miterlimit="10" stroke-width="2.5"/>
</svg>
