<?xml version="1.0" encoding="UTF-8"?><svg id="Ebene_2" xmlns="http://www.w3.org/2000/svg" viewBox="0 0 447.22 123.09"><defs><style>.cls-1{fill:none;}.cls-2{font-family:ArialMT, Arial;font-size:18px;isolation:isolate;}.cls-3{letter-spacing:0em;}.cls-4{letter-spacing:0em;}.cls-5{letter-spacing:.02em;}.cls-6{letter-spacing:.08em;}</style></defs><g id="Typogramm_Französisch"><g><rect class="cls-1" width="439" height="123.09"/><text class="cls-2" transform="translate(143.99 40.88)"><tspan class="cls-6" x="0" y="0">COMMEN</tspan><tspan class="cls-4" x="90.53" y="0">T</tspan><tspan class="cls-6" x="101.61" y="0">AIRE EN LIGNE</tspan></text><text class="cls-2" transform="translate(143.99 62.88)"><tspan class="cls-6" x="0" y="0">LE COMMEN</tspan><tspan class="cls-3" x="121.81" y="0">T</tspan><tspan class="cls-6" x="132.89" y="0">AIRE JURIDIQUE </tspan></text><text class="cls-2" transform="translate(143.99 84.88)"><tspan class="cls-6" x="0" y="0">EN OPEN</tspan><tspan class="cls-5" x="90.97" y="0"> </tspan><tspan class="cls-6" x="96.4" y="0">ACCESS</tspan></text><path d="M60.17,1.65C27.18,1.65,.44,28.39,.44,61.38s26.74,59.73,59.73,59.73c32.97-.04,59.7-26.76,59.73-59.73h0c0-32.99-26.74-59.74-59.73-59.73Zm56.8,59.74c0,31.37-25.44,56.8-56.81,56.79-31.37,0-56.8-25.44-56.79-56.8,0-31.37,25.44-56.8,56.8-56.79,31.35,.04,56.76,25.45,56.8,56.8h0Z"/><path id="Pfad_48" d="M66.01,78.11V41.07l-4.86-1.02v-1.25h15.34v1.25l-4.81,1.03v19.33l15.28-17.12c.48-.42,.78-.99,.86-1.62,0-.47-.36-.83-1.08-1.08-1.13-.32-2.29-.5-3.46-.54v-1.24h14.26v1.25c-1.75,.25-3.48,.66-5.16,1.24-1.06,.48-2,1.2-2.73,2.11l-10.69,12.2,17.33,22.52,5.99,1.03v1.24h-11.72l-15.39-20.47-3.51,4v14.2l4.81,1.03v1.24h-15.34v-1.25l4.86-1.02Z"/><path id="Pfad_49" d="M54.19,48.96c-1.65-3.22-4.14-5.94-7.22-7.85-3.07-1.9-6.62-2.89-10.23-2.85-3.61-.04-7.16,.95-10.23,2.85-3.07,1.91-5.57,4.63-7.22,7.85-1.78,3.44-2.68,7.27-2.63,11.15-.05,3.87,.85,7.7,2.63,11.15,1.65,3.23,4.14,5.94,7.22,7.85,.87,.54,1.78,1,2.73,1.39l.72-3.2c-.07-.05-.14-.1-.21-.15-2.12-1.76-3.69-4.08-4.53-6.69-1.12-3.35-1.65-6.87-1.58-10.4-.08-3.52,.46-7.03,1.58-10.37,.85-2.6,2.42-4.9,4.53-6.64,2.02-1.55,4.51-2.36,7.05-2.3,3.87-.12,7.52,1.82,9.6,5.09,2.3,3.39,3.46,8.09,3.46,14.1,.08,3.56-.46,7.1-1.58,10.48-.84,2.62-2.4,4.95-4.51,6.72-.08,.06-.16,.11-.23,.17l.72,3.18c.94-.39,1.85-.85,2.72-1.39,3.07-1.91,5.57-4.63,7.22-7.85,1.78-3.44,2.68-7.27,2.63-11.15,.05-3.87-.85-7.7-2.63-11.15"/></g></g></svg>