<?xml version="1.0" encoding="UTF-8" standalone="no"?>
<!DOCTYPE svg PUBLIC "-//W3C//DTD SVG 1.1//EN" "http://www.w3.org/Graphics/SVG/1.1/DTD/svg11.dtd">
<svg width="100%" height="100%" viewBox="0 0 4213 834" version="1.1" xmlns="http://www.w3.org/2000/svg" xmlns:xlink="http://www.w3.org/1999/xlink" xml:space="preserve" xmlns:serif="http://www.serif.com/" style="fill-rule:evenodd;clip-rule:evenodd;stroke-linejoin:round;stroke-miterlimit:2;">
    <g transform="matrix(4.16667,0,0,4.16667,0,0)">
        <path d="M36.549,10.847L18.168,10.847L18.168,51.199L0,51.199L0,65.987L17.535,66.058C17.535,66.058 17.429,126.568 17.535,146.69C17.641,166.815 35.388,186.869 57.042,186.764L57.042,171.133C49.476,169.228 36.828,164.579 36.409,146.764C36.551,118.174 36.549,10.847 36.549,10.847Z" style="fill:rgb(104,19,22);fill-rule:nonzero;"/>
        <path d="M109.829,131.691C108.279,140.353 105.703,157.255 84.859,158.03C69.013,156.762 62.604,140.564 62.604,127.889C62.604,115.21 62.543,105.563 62.604,85.177C66.408,68.241 104.889,62.538 108.69,91.693C110.662,109.297 110.813,122.111 109.829,131.691ZM126.437,101.551C124.437,66.481 96.549,42.818 62.606,64.931L62.606,0L44.859,0L44.859,130.846C46.69,152.257 65.564,170.987 85.72,171.128C116.691,171.413 124.86,146.479 126.437,122.68C126.549,115.636 127.025,118.223 126.437,101.551Z" style="fill:rgb(104,19,22);fill-rule:nonzero;"/>
        <path d="M258.229,83.623L236.628,83.623L236.628,130.325C236.628,134.787 237.465,138.538 239.138,141.578C240.813,144.621 243.877,146.144 248.34,146.144C250.57,146.144 252.449,146.019 253.968,145.762C255.49,145.51 256.807,145.18 257.924,144.774L258.836,150.553C257.517,151.062 255.921,151.517 254.045,151.92C252.168,152.325 250.014,152.531 247.581,152.531C241.596,152.531 237.085,150.706 234.042,147.056C232.217,145.028 230.949,142.439 230.239,139.297C229.529,136.154 229.174,132.86 229.174,129.41L229.174,83.623L214.269,83.623L215.788,77.691L229.174,77.691L229.174,63.85L236.628,61.567L236.628,77.691L259.749,77.691L258.229,83.623Z" style="fill:rgb(51,51,51);fill-rule:nonzero;"/>
        <path d="M329.416,100.966C328.907,98.024 327.765,95.134 325.993,92.296C324.216,89.456 321.681,87.023 318.386,84.993C315.091,82.966 310.706,81.952 305.229,81.952C300.564,81.952 296.558,82.812 293.213,84.536C289.866,86.263 287.102,88.415 284.922,91.002C282.741,93.587 281.043,96.428 279.828,99.519C278.609,102.613 277.797,105.526 277.393,108.266L330.176,108.266C330.176,106.341 329.92,103.906 329.416,100.966ZM337.934,112.374C337.934,112.98 337.832,113.59 337.629,114.199L276.937,114.199C276.937,119.576 277.721,124.237 279.293,128.192C280.866,132.147 283.044,135.471 285.835,138.155C288.624,140.842 291.893,142.849 295.646,144.162C299.398,145.481 303.455,146.144 307.815,146.144C311.061,146.144 313.9,145.99 316.333,145.688L316.942,151.92C315.521,152.124 313.977,152.277 312.303,152.378C310.629,152.479 308.88,152.531 307.055,152.531C301.375,152.531 296.229,151.615 291.616,149.795C287,147.964 283.07,145.434 279.828,142.188C276.581,138.94 274.07,135.091 272.298,130.629C270.521,126.165 269.635,121.3 269.635,116.024C269.635,109.84 270.571,104.261 272.45,99.291C274.325,94.324 276.884,90.116 280.131,86.667C283.376,83.221 287.229,80.558 291.691,78.68C296.153,76.805 300.971,75.866 306.141,75.866C312.936,75.866 318.412,77.16 322.571,79.745C326.727,82.331 329.947,85.449 332.23,89.1C334.511,92.75 336.033,96.478 336.794,100.279C337.553,104.083 337.934,107.201 337.934,109.636L337.934,112.374Z" style="fill:rgb(51,51,51);fill-rule:nonzero;"/>
        <path d="M407.752,150.706L393.149,132.147C391.222,129.715 389.445,127.354 387.825,125.076C386.203,122.791 384.528,120.536 382.806,118.306L382.5,118.306C380.98,120.64 379.407,122.87 377.787,124.997C376.162,127.13 374.336,129.513 372.309,132.147L358.011,150.706L349.34,150.706L379.003,113.287L351.167,77.691L359.684,77.691L373.678,95.641C375.401,97.873 376.999,99.953 378.469,101.878C379.938,103.804 381.435,105.833 382.957,107.961L383.262,107.961C384.783,105.833 386.303,103.779 387.825,101.801C389.346,99.823 390.967,97.769 392.692,95.641L406.688,77.691L415.054,77.691L387.063,113.133L416.421,150.706L407.752,150.706Z" style="fill:rgb(51,51,51);fill-rule:nonzero;"/>
        <path d="M467.835,83.623L446.235,83.623L446.235,130.325C446.235,134.787 447.071,138.538 448.745,141.578C450.417,144.621 453.483,146.144 457.945,146.144C460.176,146.144 462.054,146.019 463.575,145.762C465.095,145.51 466.413,145.18 467.531,144.774L468.442,150.553C467.123,151.062 465.526,151.517 463.651,151.92C461.772,152.325 459.62,152.531 457.187,152.531C451.203,152.531 446.69,150.706 443.646,147.056C441.821,145.028 440.555,142.439 439.845,139.297C439.134,136.154 438.779,132.86 438.779,129.41L438.779,83.623L423.874,83.623L425.395,77.691L438.779,77.691L438.779,63.85L446.235,61.567L446.235,77.691L469.353,77.691L467.835,83.623Z" style="fill:rgb(51,51,51);fill-rule:nonzero;"/>
        <path d="M571.647,62.177C571.09,60.351 570.202,58.677 568.986,57.157C567.77,55.635 566.194,54.419 564.27,53.506C562.341,52.594 560.06,52.137 557.426,52.137C554.687,52.137 552.278,52.644 550.201,53.658C548.121,54.673 546.371,56.016 544.951,57.688C543.528,59.363 542.465,61.29 541.755,63.47C541.045,65.651 540.693,67.907 540.693,70.237C540.693,74.703 541.68,78.604 543.657,81.952C545.635,85.296 547.64,88.29 549.667,90.925C553.013,89.305 556.08,87.682 558.869,86.058C561.659,84.436 564.066,82.71 566.095,80.887C568.123,79.061 569.693,77.083 570.811,74.953C571.924,72.825 572.483,70.391 572.483,67.653C572.483,65.828 572.201,64.002 571.647,62.177ZM576.285,129.64C573.951,127.255 571.214,124.441 568.072,121.193C564.929,117.952 561.507,114.326 557.806,110.32C554.103,106.314 550.326,102.182 546.474,97.922C544.747,98.735 542.846,99.823 540.769,101.193C538.689,102.561 536.738,104.261 534.913,106.288C533.086,108.317 531.541,110.699 530.272,113.438C529.005,116.177 528.371,119.272 528.371,122.72C528.371,126.366 529.031,129.665 530.347,132.602C531.665,135.547 533.467,138.056 535.748,140.135C538.029,142.215 540.693,143.813 543.735,144.926C546.776,146.043 550.022,146.6 553.468,146.6C559.454,146.6 564.801,145.457 569.519,143.176C574.233,140.895 578.213,138.082 581.458,134.734C580.341,133.721 578.619,132.021 576.285,129.64ZM598.039,150.706C596.113,148.981 594.237,147.184 592.412,145.306C590.586,143.43 588.353,141.327 585.716,138.993C579.732,144.269 574.027,147.841 568.603,149.714C563.179,151.59 557.525,152.531 551.643,152.531C547.385,152.531 543.405,151.821 539.704,150.401C536,148.981 532.785,147.005 530.045,144.467C527.308,141.935 525.125,138.918 523.503,135.418C521.88,131.92 521.068,128.041 521.068,123.782C521.068,119.926 521.677,116.457 522.895,113.362C524.112,110.269 525.709,107.481 527.686,104.995C529.666,102.512 531.969,100.333 534.61,98.455C537.244,96.58 540.034,94.934 542.974,93.512L542.974,93.054C536.685,85.145 533.542,77.793 533.542,70.999C533.542,67.855 534.099,64.814 535.216,61.873C536.333,58.931 537.926,56.32 540.005,54.038C542.085,51.757 544.671,49.909 547.763,48.486C550.858,47.067 554.382,46.356 558.337,46.356C561.382,46.356 564.195,46.865 566.778,47.878C569.366,48.893 571.572,50.311 573.397,52.137C575.222,53.962 576.667,56.144 577.73,58.677C578.797,61.213 579.329,63.953 579.329,66.893C579.329,69.631 578.874,72.191 577.959,74.573C577.047,76.957 575.575,79.24 573.548,81.419C571.519,83.601 568.91,85.781 565.715,87.959C562.52,90.141 558.587,92.395 553.926,94.728C553.826,94.83 553.723,94.88 553.625,94.88C553.521,94.88 553.418,94.934 553.318,95.032L553.318,95.489C556.459,99.039 559.632,102.512 562.825,105.908C566.02,109.307 569.011,112.501 571.798,115.49C574.587,118.483 577.173,121.22 579.555,123.706C581.94,126.191 583.995,128.295 585.716,130.019C586.935,128.397 588.101,126.621 589.216,124.693C590.332,122.769 591.372,120.51 592.335,117.926C593.295,115.338 594.184,112.349 594.995,108.951C595.808,105.553 596.617,101.572 597.432,97.011L604.426,97.011C602.705,106.136 600.7,113.692 598.419,119.676C596.138,125.656 593.323,130.424 589.979,133.973C593.323,137.217 596.415,140.208 599.257,142.947C602.092,145.688 604.882,148.269 607.622,150.706L598.039,150.706Z" style="fill:rgb(120,120,120);fill-rule:nonzero;"/>
        <path d="M726.118,101.345C724.795,97.542 722.87,94.197 720.336,91.307C717.798,88.415 714.732,86.134 711.134,84.46C707.531,82.789 703.452,81.952 698.887,81.952C695.846,81.952 692.879,82.383 689.99,83.245C687.099,84.107 684.413,85.373 681.924,87.046C679.44,88.721 677.234,90.85 675.31,93.435C673.382,96.021 671.912,98.988 670.899,102.334C670.592,103.246 670.313,104.235 670.061,105.3C669.806,106.364 669.683,107.606 669.683,109.026L669.683,121.649C669.683,123.379 669.932,125.254 670.441,127.28C671.151,129.816 672.342,132.249 674.016,134.583C675.691,136.914 677.717,138.94 680.099,140.664C682.484,142.394 685.17,143.786 688.164,144.85C691.153,145.912 694.423,146.446 697.976,146.446C702.636,146.446 706.824,145.66 710.522,144.09C714.223,142.519 717.368,140.287 719.954,137.396C722.542,134.504 724.542,131.032 725.966,126.978C727.381,122.92 728.094,118.408 728.094,113.438C728.094,109.177 727.434,105.147 726.118,101.345ZM732.429,130.245C730.35,135.164 727.585,139.274 724.138,142.564C720.689,145.867 716.812,148.35 712.501,150.019C708.188,151.695 703.756,152.531 699.189,152.531C692.801,152.531 687.099,151.313 682.079,148.881C677.06,146.446 672.775,142.341 669.227,136.558L668.922,136.558L668.464,150.706L661.621,150.706C661.823,147.768 661.974,144.822 662.077,141.885C662.175,138.94 662.228,136.002 662.228,133.058L662.228,41.792L669.683,41.792L669.683,92.75L669.985,92.75C672.624,87.883 676.454,83.853 681.469,80.657C686.492,77.463 692.801,75.866 700.408,75.866C705.784,75.866 710.625,76.854 714.936,78.832C719.244,80.81 722.922,83.498 725.966,86.895C729.005,90.293 731.362,94.247 733.037,98.759C734.71,103.273 735.549,108.064 735.549,113.133C735.549,119.623 734.504,125.327 732.429,130.245Z" style="fill:rgb(51,51,51);fill-rule:nonzero;"/>
        <path d="M791.218,136.708C788.682,142.492 786.351,147.589 784.221,152C782.088,156.409 779.986,160.262 777.907,163.56C775.827,166.853 773.747,169.693 771.672,172.077C769.592,174.459 767.336,176.514 764.902,178.236C761.759,180.57 758.942,182.194 756.459,183.105C753.974,184.02 752.328,184.573 751.514,184.78L749.539,178.543C751.364,178.034 753.466,177.224 755.853,176.105C758.232,174.99 760.588,173.42 762.923,171.393C764.851,169.769 767.083,167.387 769.618,164.242C772.151,161.098 774.585,156.945 776.919,151.769C777.529,150.454 777.831,149.49 777.831,148.881C777.831,148.171 777.476,147.056 776.768,145.537L746.497,77.691L754.559,77.691L776.31,126.521C777.425,128.853 778.518,131.413 779.581,134.199C780.648,136.993 781.532,139.551 782.245,141.885L782.549,141.885C783.357,139.551 784.271,137.04 785.286,134.352C786.298,131.668 787.414,128.853 788.632,125.911L809.016,77.691L817.079,77.691L791.218,136.708Z" style="fill:rgb(51,51,51);fill-rule:nonzero;"/>
        <path d="M866.667,83.623L845.067,83.623L845.067,130.325C845.067,134.787 845.903,138.538 847.577,141.578C849.249,144.621 852.315,146.144 856.78,146.144C859.007,146.144 860.886,146.019 862.407,145.762C863.927,145.51 865.245,145.18 866.362,144.774L867.274,150.553C865.957,151.062 864.358,151.517 862.485,151.92C860.607,152.325 858.454,152.531 856.016,152.531C850.032,152.531 845.522,150.706 842.478,147.056C840.653,145.028 839.386,142.439 838.676,139.297C837.966,136.154 837.614,132.86 837.614,129.41L837.614,83.623L822.706,83.623L824.226,77.691L837.614,77.691L837.614,63.85L845.067,61.567L845.067,77.691L868.188,77.691L866.667,83.623Z" style="fill:rgb(51,51,51);fill-rule:nonzero;"/>
        <path d="M937.853,100.966C937.344,98.024 936.204,95.134 934.431,92.296C932.654,89.456 930.119,87.023 926.825,84.993C923.527,82.966 919.143,81.952 913.667,81.952C909.001,81.952 904.998,82.812 901.652,84.536C898.303,86.263 895.542,88.415 893.358,91.002C891.18,93.587 889.481,96.428 888.265,99.519C887.046,102.613 886.235,105.526 885.833,108.266L938.614,108.266C938.614,106.341 938.359,103.906 937.853,100.966ZM946.371,112.374C946.371,112.98 946.267,113.59 946.066,114.199L885.375,114.199C885.375,119.576 886.16,124.237 887.733,128.192C889.302,132.147 891.482,135.471 894.272,138.155C897.062,140.842 900.33,142.849 904.084,144.162C907.833,145.481 911.892,146.144 916.255,146.144C919.496,146.144 922.338,145.99 924.77,145.688L925.379,151.92C923.959,152.124 922.414,152.277 920.74,152.378C919.068,152.479 917.318,152.531 915.493,152.531C909.812,152.531 904.668,151.615 900.053,149.795C895.438,147.964 891.51,145.434 888.265,142.188C885.017,138.94 882.509,135.091 880.737,130.629C878.958,126.165 878.073,121.3 878.073,116.024C878.073,109.84 879.009,104.261 880.887,99.291C882.763,94.324 885.322,90.116 888.569,86.667C891.815,83.221 895.667,80.558 900.128,78.68C904.587,76.805 909.41,75.866 914.581,75.866C921.372,75.866 926.847,77.16 931.007,79.745C935.167,82.331 938.384,85.449 940.666,89.1C942.949,92.75 944.47,96.478 945.23,100.279C945.991,104.083 946.371,107.201 946.371,109.636L946.371,112.374Z" style="fill:rgb(51,51,51);fill-rule:nonzero;"/>
        <path d="M1008.81,139.832C1007.64,142.412 1005.92,144.646 1003.64,146.524C1001.36,148.402 998.592,149.868 995.352,150.933C992.102,152 988.403,152.531 984.247,152.531C980.391,152.531 976.715,152.048 973.218,151.084C969.718,150.125 966.599,148.83 963.862,147.206L966.599,140.818C968.83,142.241 971.519,143.505 974.664,144.621C977.806,145.736 981.203,146.295 984.853,146.295C991.241,146.295 995.906,144.875 998.847,142.037C1001.79,139.197 1003.26,135.9 1003.26,132.147C1003.26,127.889 1001.84,124.567 998.998,122.185C996.161,119.802 991.853,117.695 986.072,115.872C972.888,111.612 966.294,105.022 966.294,96.098C966.294,93.565 966.803,91.077 967.818,88.644C968.83,86.21 970.353,84.031 972.379,82.104C974.409,80.178 976.917,78.657 979.908,77.539C982.899,76.425 986.376,75.866 990.33,75.866C993.879,75.866 997.177,76.323 1000.22,77.236C1003.26,78.148 1005.85,79.315 1007.97,80.733L1005.09,86.818C1003.87,86.009 1001.94,85.019 999.305,83.853C996.664,82.688 993.22,82.104 988.959,82.104C983.891,82.104 980.064,83.395 977.476,85.982C974.892,88.568 973.598,91.636 973.598,95.185C973.598,97.213 973.976,98.988 974.739,100.507C975.5,102.029 976.615,103.349 978.083,104.463C979.553,105.58 981.328,106.593 983.408,107.505C985.488,108.418 987.897,109.33 990.634,110.243C997.329,112.578 1002.32,115.338 1005.62,118.533C1008.91,121.729 1010.56,126.063 1010.56,131.539C1010.56,134.484 1009.98,137.243 1008.81,139.832Z" style="fill:rgb(51,51,51);fill-rule:nonzero;"/>
    </g>
</svg>
